<mxfile host="app.diagrams.net" modified="2024-04-17T13:30:05.559Z" agent="Mozilla/5.0 (Windows NT 10.0; Win64; x64) AppleWebKit/537.36 (KHTML, like Gecko) Chrome/123.0.0.0 Safari/537.36" etag="9a-BCgcaIweVJhOAvJfw" version="24.2.5" type="device">
  <diagram name="Página-1" id="nRtGhl5oggBy11ls9HZa">
    <mxGraphModel dx="1434" dy="746" grid="1" gridSize="10" guides="1" tooltips="1" connect="1" arrows="1" fold="1" page="1" pageScale="1" pageWidth="827" pageHeight="1169" math="0" shadow="0">
      <root>
        <mxCell id="0" />
        <mxCell id="1" parent="0" />
        <mxCell id="9OypmNciuYTUk59WZX9U-1" value="inicio" style="strokeWidth=2;html=1;shape=mxgraph.flowchart.start_1;whiteSpace=wrap;" vertex="1" parent="1">
          <mxGeometry x="364" y="50" width="100" height="60" as="geometry" />
        </mxCell>
        <mxCell id="9OypmNciuYTUk59WZX9U-2" value="input aTriangulo&lt;div&gt;input bTriangulo&lt;/div&gt;" style="shape=parallelogram;html=1;strokeWidth=2;perimeter=parallelogramPerimeter;whiteSpace=wrap;rounded=1;arcSize=12;size=0.23;" vertex="1" parent="1">
          <mxGeometry x="300" y="210" width="220" height="60" as="geometry" />
        </mxCell>
        <mxCell id="9OypmNciuYTUk59WZX9U-5" value="" style="endArrow=classic;html=1;rounded=0;" edge="1" parent="1">
          <mxGeometry width="50" height="50" relative="1" as="geometry">
            <mxPoint x="414" y="110" as="sourcePoint" />
            <mxPoint x="414" y="210" as="targetPoint" />
          </mxGeometry>
        </mxCell>
        <mxCell id="9OypmNciuYTUk59WZX9U-6" value="El área del triangulo es:, areaT" style="strokeWidth=2;html=1;shape=mxgraph.flowchart.delay;whiteSpace=wrap;" vertex="1" parent="1">
          <mxGeometry x="305" y="620" width="200" height="60" as="geometry" />
        </mxCell>
        <mxCell id="9OypmNciuYTUk59WZX9U-10" value="" style="edgeStyle=orthogonalEdgeStyle;rounded=0;orthogonalLoop=1;jettySize=auto;html=1;" edge="1" parent="1" source="9OypmNciuYTUk59WZX9U-7" target="9OypmNciuYTUk59WZX9U-9">
          <mxGeometry relative="1" as="geometry" />
        </mxCell>
        <mxCell id="9OypmNciuYTUk59WZX9U-7" value="areaT = bTrangutlo * aTraiangulo /2&amp;nbsp;" style="rounded=1;whiteSpace=wrap;html=1;absoluteArcSize=1;arcSize=14;strokeWidth=2;" vertex="1" parent="1">
          <mxGeometry x="310" y="390" width="200" height="100" as="geometry" />
        </mxCell>
        <mxCell id="9OypmNciuYTUk59WZX9U-8" value="" style="endArrow=classic;html=1;rounded=0;exitX=0.5;exitY=1;exitDx=0;exitDy=0;entryX=0.5;entryY=0;entryDx=0;entryDy=0;" edge="1" parent="1" source="9OypmNciuYTUk59WZX9U-2" target="9OypmNciuYTUk59WZX9U-7">
          <mxGeometry width="50" height="50" relative="1" as="geometry">
            <mxPoint x="409.5" y="280" as="sourcePoint" />
            <mxPoint x="409.5" y="380" as="targetPoint" />
          </mxGeometry>
        </mxCell>
        <mxCell id="9OypmNciuYTUk59WZX9U-9" value="" style="shape=waypoint;sketch=0;size=6;pointerEvents=1;points=[];fillColor=default;resizable=0;rotatable=0;perimeter=centerPerimeter;snapToPoint=1;rounded=1;arcSize=14;strokeWidth=2;" vertex="1" parent="1">
          <mxGeometry x="400" y="610" width="20" height="20" as="geometry" />
        </mxCell>
      </root>
    </mxGraphModel>
  </diagram>
</mxfile>
